<svg width="48" height="48" viewBox="0 0 48 48" xmlns="http://www.w3.org/2000/svg">
  <defs>
    <linearGradient id="brain-gradient" x1="0%" y1="0%" x2="100%" y2="100%">
      <stop offset="0%" style="stop-color:#667eea;stop-opacity:1" />
      <stop offset="100%" style="stop-color:#764ba2;stop-opacity:1" />
    </linearGradient>
    <linearGradient id="lightning-gradient" x1="0%" y1="0%" x2="100%" y2="100%">
      <stop offset="0%" style="stop-color:#4ade80;stop-opacity:1" />
      <stop offset="100%" style="stop-color:#22c55e;stop-opacity:1" />
    </linearGradient>
  </defs>
  
  <!-- Brain shape -->
  <path d="M24 6 C30 6, 36 12, 36 18 C36 21, 34.5 24, 31.5 25.5 C33 27, 34.5 30, 34.5 33 C34.5 39, 30 42, 24 42 C18 42, 13.5 39, 13.5 33 C13.5 30, 15 27, 16.5 25.5 C13.5 24, 12 21, 12 18 C12 12, 18 6, 24 6 Z" fill="url(#brain-gradient)" stroke="rgba(255,255,255,0.3)" stroke-width="1"/>
  
  <!-- Lightning bolt -->
  <path d="M21 15 L27 15 L22.5 24 L25.5 24 L19.5 33 L22.5 24 L21 24 Z" fill="url(#lightning-gradient)" stroke="white" stroke-width="0.5"/>
  
  <!-- Subtle glow -->
  <circle cx="24" cy="24" r="21" fill="none" stroke="rgba(102,126,234,0.15)" stroke-width="1"/>
</svg>