<svg width="128" height="128" viewBox="0 0 128 128" xmlns="http://www.w3.org/2000/svg">
  <defs>
    <linearGradient id="brain-gradient" x1="0%" y1="0%" x2="100%" y2="100%">
      <stop offset="0%" style="stop-color:#667eea;stop-opacity:1" />
      <stop offset="100%" style="stop-color:#764ba2;stop-opacity:1" />
    </linearGradient>
    <linearGradient id="lightning-gradient" x1="0%" y1="0%" x2="100%" y2="100%">
      <stop offset="0%" style="stop-color:#4ade80;stop-opacity:1" />
      <stop offset="100%" style="stop-color:#22c55e;stop-opacity:1" />
    </linearGradient>
    <filter id="glow">
      <feGaussianBlur stdDeviation="3" result="coloredBlur"/>
      <feMerge> 
        <feMergeNode in="coloredBlur"/>
        <feMergeNode in="SourceGraphic"/>
      </feMerge>
    </filter>
  </defs>
  
  <!-- Outer glow circle -->
  <circle cx="64" cy="64" r="58" fill="none" stroke="rgba(102,126,234,0.2)" stroke-width="3"/>
  
  <!-- Brain shape -->
  <path d="M64 16 C80 16, 96 32, 96 48 C96 56, 92 64, 84 68 C88 72, 92 80, 92 88 C92 104, 80 112, 64 112 C48 112, 36 104, 36 88 C36 80, 40 72, 44 68 C36 64, 32 56, 32 48 C32 32, 48 16, 64 16 Z" fill="url(#brain-gradient)" stroke="rgba(255,255,255,0.3)" stroke-width="2" filter="url(#glow)"/>
  
  <!-- Lightning bolt -->
  <path d="M56 40 L72 40 L60 64 L68 64 L52 88 L60 64 L56 64 Z" fill="url(#lightning-gradient)" stroke="white" stroke-width="1" filter="url(#glow)"/>
  
  <!-- Inner highlight -->
  <ellipse cx="58" cy="45" rx="8" ry="4" fill="rgba(255,255,255,0.3)" opacity="0.6"/>
</svg>